<?xml version="1.0" encoding="utf-8"?>
<!-- Generator: Adobe Illustrator 25.0.0, SVG Export Plug-In . SVG Version: 6.00 Build 0)  -->
<svg version="1.1" id="Camada_1" xmlns="http://www.w3.org/2000/svg" xmlns:xlink="http://www.w3.org/1999/xlink" x="0px" y="0px"
	 viewBox="0 0 24 24" style="enable-background:new 0 0 24 24;" xml:space="preserve">
<style type="text/css">
	.st0{fill:#1867C0;}
</style>
<path class="st0" d="M16.8,22.2l-2.8-3l1.2-1.2l1.6,1.6l3.6-3.6l1.2,1.4L16.8,22.2 M3,7V5h2V4c0-1.1,0.9-2,2-2h6v7l2.5-1.5L18,9V2h1
	c1,0,2,1,2,2v9.8c-0.9-0.5-1.9-0.8-3-0.8c-3.3,0-6,2.7-6,6c0,1.1,0.3,2.1,0.8,3H7c-1.1,0-2-1-2-2v-1H3v-2h2v-4H3v-2h2V7H3 M5,5v2h2
	V5H5 M5,19h2v-2H5V19 M5,13h2v-2H5V13z"/>
</svg>
